<?xml version="1.0" standalone="no"?>
<!DOCTYPE svg PUBLIC "-//W3C//DTD SVG 20010904//EN"
 "http://www.w3.org/TR/2001/REC-SVG-20010904/DTD/svg10.dtd">
<svg version="1.0" xmlns="http://www.w3.org/2000/svg"
 width="600.000000pt" height="600.000000pt" viewBox="0 0 600.000000 600.000000"
 preserveAspectRatio="xMidYMid meet">
<metadata>
Created by potrace 1.14, written by Peter Selinger 2001-2017
</metadata>
<g transform="translate(0.000000,600.000000) scale(0.100000,-0.100000)"
fill="#000000" stroke="none">
<path d="M2195 5262 c-37 -23 -143 -178 -215 -315 -29 -54 -58 -100 -64 -102
-132 -36 -263 -129 -451 -319 -254 -258 -395 -533 -466 -911 -26 -138 -34
-443 -14 -585 78 -577 332 -1081 759 -1505 290 -289 607 -497 966 -635 76 -29
252 -84 305 -95 11 -3 40 -9 65 -15 328 -73 705 -70 1014 10 225 58 409 139
591 261 111 74 279 227 317 287 48 77 32 144 -62 260 -27 34 -50 64 -50 67 0
3 -10 16 -22 30 -22 25 -26 26 -98 20 -41 -4 -86 -9 -100 -12 -46 -9 -444 -11
-510 -2 -36 5 -81 11 -100 13 -69 9 -196 38 -310 71 -365 105 -743 340 -1005
624 -297 321 -516 763 -570 1151 -3 19 -8 51 -11 70 -4 19 -8 123 -9 230 -4
255 17 407 91 663 37 127 42 137 134 221 25 23 73 70 108 106 158 161 201 234
170 288 -31 54 -217 122 -378 138 -44 4 -61 1 -85 -14z m-162 -627 c16 -2 31
-6 34 -8 2 -3 -7 -36 -20 -74 -23 -63 -68 -248 -81 -333 -33 -212 -27 -527 14
-735 15 -76 18 -85 35 -150 110 -417 305 -762 600 -1061 464 -471 1055 -727
1703 -738 76 -1 77 -1 79 -28 1 -18 -4 -31 -15 -36 -41 -20 -490 -19 -698 2
-93 9 -170 18 -189 22 -11 2 -48 9 -82 14 -134 22 -332 83 -459 141 -122 56
-329 195 -448 299 -147 130 -268 251 -356 360 -25 30 -53 64 -64 75 -46 50
-200 297 -255 408 -87 179 -154 390 -165 527 -12 136 -18 169 -34 175 -8 3
-23 -1 -31 -10 -13 -13 -16 -39 -15 -133 1 -178 23 -300 85 -479 35 -99 126
-288 184 -378 72 -113 186 -263 305 -400 148 -171 404 -400 560 -499 212 -136
502 -231 825 -271 28 -4 61 -8 75 -11 158 -26 570 -22 725 7 41 7 61 7 68 0 6
-6 8 -11 4 -11 -13 0 24 -63 55 -97 17 -17 28 -35 25 -40 -23 -37 -406 -189
-522 -208 -203 -32 -257 -37 -400 -37 -483 -1 -975 168 -1405 481 -41 30 -77
57 -80 60 -3 3 -27 24 -55 46 -155 123 -392 393 -511 582 -132 211 -256 488
-289 647 -3 10 -9 33 -14 50 -6 17 -17 69 -25 116 -60 342 -33 664 80 967 106
284 285 527 514 698 41 31 84 58 95 60 59 12 61 12 148 0z"/>
<path d="M3737 5084 c-3 -5 -15 -66 -26 -136 -12 -69 -31 -159 -42 -200 -22
-78 -68 -191 -81 -196 -4 -2 -8 -8 -8 -14 0 -10 -56 -83 -90 -119 -81 -83
-220 -146 -382 -174 -61 -10 -47 -31 29 -45 81 -14 203 -60 263 -99 174 -112
272 -307 316 -626 3 -22 7 -49 9 -60 2 -11 4 -26 4 -32 1 -7 8 -13 18 -13 9 0
14 2 11 5 -3 3 -2 26 3 51 5 25 11 65 15 90 12 92 63 272 94 338 33 67 95 154
135 188 84 73 206 129 335 155 88 17 106 38 43 48 -174 29 -298 89 -398 190
-121 123 -175 264 -221 584 -7 51 -18 78 -27 65z"/>
<path d="M4490 3188 c-39 -242 -106 -359 -243 -428 -33 -16 -86 -35 -118 -42
-64 -13 -75 -24 -31 -34 247 -53 353 -188 397 -508 8 -60 22 -49 31 24 17 147
66 277 132 351 34 38 147 112 167 109 3 0 22 4 43 9 20 6 50 13 65 16 38 8 27
21 -25 30 -24 5 -45 9 -48 10 -3 1 -18 5 -34 10 -89 25 -185 108 -230 200 -31
65 -72 229 -75 303 -2 47 -20 19 -31 -50z"/>
</g>
</svg>
