<svg width="166" height="100%" viewBox="0 0 2278 244" fill="current" xmlns="http://www.w3.org/2000/svg">
<path d="M0 237.859C20.1223 222.842 20.1223 180.525 20.4639 115.688C20.8054 46.7545 16.0285 15.0169 0 4.4377L0.341574 1.70874H80.1527L80.4943 4.4377C63.4411 16.0371 59.6888 48.4582 60.372 135.821C68.2129 113.3 124.833 111.592 124.833 111.592C124.491 57.3337 122.793 16.0371 104.027 4.4377L104.369 1.70874H184.18L184.521 4.4377C167.127 17.7459 164.741 55.9565 164.741 115.688C164.741 173.016 164.399 224.55 184.521 237.859L184.18 240.587H104.369L104.027 237.859C123.13 226.938 124.15 175.75 124.491 126.267C124.491 126.267 60.372 124.226 60.372 152.883C61.05 184.963 63.0995 226.596 80.4943 237.859L80.1527 240.587H0.341574L0 237.859Z"/>
<path d="M260.575 208.85C260.917 220.796 262.615 231.034 273.535 231.034C308.324 231.375 329.13 216.7 339.367 158.346L341.07 158.004C341.411 187.691 344.129 214.313 349.935 240.587H198.827L198.485 237.859C219.291 221.475 218.608 174.725 218.608 117.05C218.608 53.2377 217.246 20.8166 198.485 4.4377L198.827 1.70874H352.668C346.188 23.5456 339.025 49.1468 338.684 74.3961H336.986C326.402 36.1753 323.333 9.89563 277.97 10.9209H260.917C259.551 46.071 259.209 81.2211 259.209 115.346C267.738 104.767 289.568 94.1875 305.939 94.1875C317.195 94.1875 325.719 99.2883 326.402 112.275C327.086 126.95 311.399 135.137 311.399 135.137L310.715 134.795C306.963 123.196 296.048 113.979 283.089 113.979C275.243 113.979 267.055 117.039 259.209 124.9C259.209 160.733 259.551 171.654 260.575 208.85Z" />
<path d="M405.53 237.859C419.515 230.35 425.311 212.946 425.311 188.38C425.311 167.222 426.331 151.863 422.925 136.168C419.52 120.472 406.892 91.1219 399.387 73.376C380.973 30.7174 370.741 11.2678 355.033 4.44283L355.375 1.71387H438.949L439.29 4.44283C429.058 7.1718 425.648 32.4262 435.879 58.0019C443.725 77.7984 451.908 101.686 461.12 121.819L482.604 60.0525C488.405 43.6685 497.271 13.6346 480.218 4.45303L480.559 1.72407H529.695L530.037 4.45303C512.642 8.20727 502.752 36.5324 493.881 57.6857C481.946 86.6943 470.689 120.141 467.62 138.907C464.893 154.607 465.913 169.961 465.913 188.385C465.913 213.298 472.03 230.722 485.698 237.864L485.357 240.593H405.867L405.53 237.859Z" />
<path d="M532.754 120.462C587.304 113.321 592.443 68.9433 597.556 29.6666H599.595C605.392 68.9127 608.119 112.255 664.739 120.462V123.523C608.119 131.709 605.392 175.041 599.595 214.318H597.556C592.458 175.072 587.324 130.71 532.754 123.523V120.462Z" />
<path d="M666.442 240.587L666.106 237.859C682.476 222.5 691 217.384 709.078 145.023C720.676 99.625 734.319 44.6938 744.209 -0.0102539H768.083C775.588 40.256 785.137 73.3606 797.76 116.019C820.268 193.481 835.96 234.436 850.627 237.848L850.286 240.577H762.97L762.628 237.848C778.315 224.54 769.45 189.39 762.287 160.04C748.644 160.04 712.147 169.935 707.375 191.094C702.598 216.348 703.296 228.631 715.532 237.848L715.19 240.577L666.442 240.587ZM711.127 173.7C718.626 158.683 743.526 148.787 758.876 147.083L737.729 70.6419L711.127 173.7Z" />
<path d="M1011.95 244L881.659 55.6249V115.346C881.659 186.33 886.095 218.062 905.192 237.858L904.851 240.587H849.281L848.94 237.858C868.726 217.725 872.136 186.34 872.136 115.004C872.136 47.7747 867.038 16.3788 851.667 4.4377L851.331 1.70874H886.798C898.055 2.72891 908.97 7.16667 920.227 23.8873L1004.13 147.083C1004.13 72.3455 1005.49 27.2998 980.257 4.4377V1.70874H1036.85L1037.19 4.4377C1017.07 26.2745 1013.66 68.2495 1013.66 142.987V243.985L1011.95 244Z" />
<path d="M1028.32 240.587L1027.98 237.859C1044.35 222.5 1052.88 217.384 1070.95 145.023C1082.55 99.625 1096.19 44.6938 1106.08 -0.0102539H1129.96C1137.46 40.256 1147.02 73.3606 1159.63 116.019C1182.14 193.481 1197.83 234.436 1212.5 237.848L1212.16 240.577H1124.85L1124.5 237.848C1140.19 224.54 1131.32 189.39 1124.16 160.04C1110.52 160.04 1074.02 169.935 1069.25 191.094C1064.47 216.348 1065.17 228.631 1077.44 237.848L1077.1 240.577L1028.32 240.587ZM1073 173.7C1080.51 158.683 1105.4 148.787 1120.75 147.083L1099.6 70.6419L1073 173.7Z" />
<path d="M1213.18 240.587L1212.84 237.859C1233.99 227.279 1233.64 163.804 1232.96 113.979C1232.28 64.1536 1233.3 20.1229 1212.84 4.77948L1213.18 1.71896L1287.53 1.3772C1322.32 1.3772 1357.45 17.4143 1357.45 56.6604C1357.45 81.573 1339.72 101.364 1319.59 107.848C1350.97 111.602 1376.55 136.514 1376.55 174.394C1376.55 220.123 1346.54 241.281 1299.13 241.281L1213.18 240.587ZM1312.77 60.7462C1312.77 35.8336 1301.51 10.5792 1275.25 11.6044L1273.54 109.883C1299.81 105.108 1312.77 88.046 1312.77 60.7462ZM1329.82 170.971C1329.82 151.858 1324.72 125.242 1295.03 116.392C1287.91 117.364 1280.73 117.819 1273.54 117.754L1274.56 209.896C1274.9 219.449 1277.97 229.687 1290.25 229.687C1306.29 229.667 1329.83 211.921 1329.83 170.971H1329.82Z" />
<path d="M1370.07 240.587L1369.73 237.859C1386.1 222.5 1394.63 217.384 1412.71 145.023C1424.3 99.625 1437.95 44.6938 1447.84 -0.0102539H1471.71C1479.22 40.256 1488.76 73.3606 1501.38 116.019C1523.9 193.481 1539.58 234.436 1554.25 237.848L1553.91 240.577H1466.59L1466.25 237.848C1481.94 224.54 1473.07 189.39 1465.91 160.04C1452.27 160.04 1415.77 169.935 1411 191.094C1406.23 216.348 1406.92 228.631 1419.19 237.848L1418.84 240.577L1370.07 240.587ZM1414.73 173.7C1422.23 158.683 1447.13 148.787 1462.48 147.083L1441.34 70.6419L1414.73 173.7Z" />
<path d="M1715.57 244L1585.28 55.6249V115.346C1585.28 186.33 1589.72 218.062 1608.82 237.858L1608.48 240.587H1552.89L1552.55 237.858C1572.33 217.725 1575.74 186.34 1575.74 115.004C1575.74 47.7747 1570.64 16.3788 1555.27 4.4377L1554.93 1.70874H1590.4C1601.66 2.72891 1612.57 7.16667 1623.82 23.8873L1707.73 147.083C1707.73 72.3455 1709.1 27.2998 1683.85 4.4377V1.70874H1740.5L1740.84 4.4377C1720.72 26.2745 1717.31 68.2495 1717.31 142.987V243.985L1715.57 244Z" />
<path d="M1731.94 240.587L1731.6 237.859C1747.98 222.5 1756.5 217.384 1774.58 145.023C1786.18 99.625 1799.82 44.6938 1809.71 -0.0102539H1833.59C1841.09 40.256 1850.64 73.3606 1863.26 116.019C1885.77 193.481 1901.46 234.436 1916.12 237.848L1915.78 240.577H1828.47L1828.13 237.848C1843.82 224.54 1834.95 189.39 1827.79 160.04C1814.15 160.04 1777.65 169.935 1772.87 191.094C1768.1 216.348 1768.79 228.631 1781.06 237.848L1780.72 240.577L1731.94 240.587ZM1776.62 173.7C1784.13 158.683 1809.03 148.787 1824.38 147.083L1803.23 70.6419L1776.62 173.7Z" />
<path d="M2077.45 244L1947.16 55.6249V115.346C1947.16 186.33 1951.59 218.062 1970.7 237.858L1970.35 240.587H1914.76L1914.42 237.858C1934.2 217.725 1937.61 186.34 1937.61 115.004C1937.61 47.7747 1932.51 16.3788 1917.14 4.4377L1916.8 1.70874H1952.28C1963.53 2.72891 1974.45 7.16667 1985.7 23.8873L2069.6 147.083C2069.6 72.3455 2070.97 27.2998 2045.73 4.4377V1.70874H2102.35L2102.69 4.4377C2082.57 26.2745 2079.16 68.2495 2079.16 142.987V243.985L2077.45 244Z" />
<path d="M2093.8 240.587L2093.46 237.859C2109.83 222.5 2118.36 217.384 2136.44 145.023C2148.03 99.625 2161.68 44.6938 2171.57 -0.0102539H2195.44C2202.95 40.256 2212.49 73.3606 2225.12 116.019C2247.63 193.481 2263.32 234.436 2277.98 237.848L2277.64 240.577H2190.35L2190.01 237.848C2205.69 224.54 2196.83 189.39 2189.66 160.04C2176.02 160.04 2139.52 169.935 2134.75 191.094C2129.98 216.348 2130.67 228.631 2142.94 237.848L2142.59 240.577L2093.8 240.587ZM2138.48 173.7C2145.98 158.683 2170.88 148.787 2186.23 147.083L2165.09 70.6419L2138.48 173.7Z" />
</svg>
